<svg xmlns="http://www.w3.org/2000/svg" viewBox="0 0 750 500"><g id="freepik--background-simple--inject-2"><path d="M209.44,118.17C187,169.74,197.57,228.94,229.1,275.52s84,76.73,139.16,87.71c39.37,7.84,81.74,6.24,117.72-11.58s64.27-53.67,66.43-93.76c.81-15.14-2.4-31.22-12.51-42.53-16.13-18.05-43.68-18.69-67.88-18s-51.74.19-67.95-17.8c-12.46-13.82-14.3-33.86-20.86-51.27-11.16-29.6-38.1-52.72-69-59.26a117.26,117.26,0,0,0-32.46-2.22,85.71,85.71,0,0,0-72.09,50.9Z" style="fill:#ebebeb"></path></g><g id="freepik--Dog--inject-2"><path d="M245.44,361.85,229.9,311.57s48.59-19.77,48-18.93-1.13,18.37-13,31.36-11.3,24.29-6.22,27.4c0,0,7.4-2.64,12.21-.95s14.64,11.4,14.64,11.4Z" style="fill:#B0BEC5"></path><path d="M245.44,361.85,229.9,311.57s48.59-19.77,48-18.93-1.13,18.37-13,31.36-11.3,24.29-6.22,27.4c0,0,7.4-2.64,12.21-.95s14.64,11.4,14.64,11.4Z" style="opacity:0.30000000000000004"></path><path d="M486.57,331.62l-2.43-22.74-7.89-7.9-39.11-10.83a8.36,8.36,0,0,0-5.14.21l-16.63,6.11-8.17-1.4s-9.74-2.49-14.47-5.15a22.53,22.53,0,0,0-5.88-2.24c-43.6-10.44-75.8-36.64-75.8-36.64-4.45-4.45-19.75-29.19-28.33-32.77s-26.7-2-26.7-2l-3.91,1.26,1.8-.86a35.75,35.75,0,0,0-66.34,3.43c-2.19,6.46-2.51,13.43-3.78,20.13a22.35,22.35,0,0,1-10.87,12.57c-6.32,3.33-13.81,3.92-20.88,2.94a24.78,24.78,0,0,0,17.42,7.93c-6.59,5.09-14.7,8.66-22.72,11.07a27.22,27.22,0,0,0,30.06.43l-8.11,7.07c8.44,1.29,16.58-4.58,21-11.88s6.08-15.87,8.46-24.06,5.89-16.59,12.75-21.65c5.9-4.35,14.85-5.1,20.49-.91-5.67,1.35-17.34,5.52-21.91,17.62-3.32,8.83-1.21,15.93-8.81,41.33-5.19,17.36-32.95,30.08-32.95,30.08s7.53,5.47,11.45,16.85c6,17.45,9.81,43.94,13.72,48.1,0,0,33.5,5.11,39.57,1.87,0,0-14.45-13.71-26.3-13.71l-3.94-11.39c-.47-3.54-3.45-23.16-.52-23.59,1.16-.17,9,.16,14.94-1.28,9.75-2.34,30.2-16.36,32.46-19.12,0,0,21.39,2.07,32.79,25.25,7.38,15,40.59,38.82,67.2,37.06l3-.21a2.89,2.89,0,0,1,3.07,3.11l-.59,7.67c15.12-.86,24,12.46,24,12.46,31.84.91,46.4,3.44,78.24,4.35,0,0,0-3.76-5.06-8.1-8.6-7.39-31.23-6.82-31.23-6.82-3.74-.28-7.69-.64-10.72-2.84-3.71-2.69-6.79-7.72-8.26-12.13l73.5.33.2.42,27.15-1.41c14.28-9.29,15-30.63,15-30.63Z" style="fill:#B0BEC5"></path><g style="opacity:0.30000000000000004"><path d="M415.37,296.47c-7,10.57-11.94,24.26-11.63,36.91s3,24.55,5.65,36.93l-5,0c-3.38-12.79-6.85-25.35-6.84-37.08A69.39,69.39,0,0,1,409,295.38"></path></g><path d="M222.84,382.08c-.08.06-.81-.9-2.24-2.19a20.79,20.79,0,0,0-13.68-5.31c-1.92,0-3.11.21-3.13.11a2.52,2.52,0,0,1,.82-.23,12.62,12.62,0,0,1,2.31-.27,17.65,17.65,0,0,1,3.44.18,21.48,21.48,0,0,1,4.09,1.09,20.94,20.94,0,0,1,3.75,2,17.19,17.19,0,0,1,2.67,2.18,12.83,12.83,0,0,1,1.52,1.75C222.71,381.8,222.87,382.06,222.84,382.08Z" style="fill:#263238"></path><path d="M165.5,311.76c0-.19,4.08.69,9.11.27a58.66,58.66,0,0,0,8.95-1.73,10,10,0,0,1-2.5,1,29.46,29.46,0,0,1-12.93,1A9.84,9.84,0,0,1,165.5,311.76Z" style="fill:#263238"></path><path d="M165.55,314.06a38.65,38.65,0,0,0,9.23,1.22c5.19-.07,9.14-1.75,9.19-1.56a9.82,9.82,0,0,1-2.56,1.07,24.26,24.26,0,0,1-13.27.25A9.16,9.16,0,0,1,165.55,314.06Z" style="fill:#263238"></path><path d="M168.61,316.13c0-.16,3.06.63,6.83,1.29s6.86.95,6.85,1.11a26.35,26.35,0,0,1-6.95-.56A26.31,26.31,0,0,1,168.61,316.13Z" style="fill:#263238"></path><path d="M261.22,278.29a8.79,8.79,0,0,1,.17,1.64,18.91,18.91,0,0,1,.05,1.94c0,.75,0,1.62-.11,2.56a28.84,28.84,0,0,1-.36,3.09c-.14,1.11-.43,2.28-.71,3.5a43.84,43.84,0,0,1-2.77,7.7,45.24,45.24,0,0,1-4.24,7c-.78,1-1.5,1.94-2.28,2.75a29.09,29.09,0,0,1-2.17,2.23,24,24,0,0,1-1.93,1.69,15.65,15.65,0,0,1-1.53,1.18,9.35,9.35,0,0,1-1.38.91c-.07-.1,1.88-1.42,4.56-4.06.67-.67,1.4-1.4,2.1-2.25s1.46-1.77,2.22-2.76a47.73,47.73,0,0,0,4.15-6.93,46.64,46.64,0,0,0,2.77-7.59c.29-1.21.59-2.35.75-3.45s.33-2.11.43-3C261.31,280.65,261.1,278.3,261.22,278.29Z" style="fill:#263238"></path><g style="opacity:0.30000000000000004"><path d="M298,235c-6.88,6.55-10.47,17.86-8.49,27.16a28.47,28.47,0,0,0,18,20.51c6.85,2.44,15,2.37,20.31,7.28,3.08,2.83,4.7,6.87,7.1,10.29a27.1,27.1,0,0,0,28.42,10.38c10.38-2.76,18.53-13.27,19.51-24A167.27,167.27,0,0,1,364.88,281a237.58,237.58,0,0,1-22.54-10.22c-5.29-2.83-24.19-14.45-27.42-16.82C310,250.35,298,235,298,235Z"></path></g><path d="M214.67,252.24a8.78,8.78,0,0,1,.6-2.35,29.58,29.58,0,0,1,2.46-5.29,29.07,29.07,0,0,1,3.48-4.7,7.94,7.94,0,0,1,1.78-1.64,78,78,0,0,0-4.77,6.63C215.9,248.75,214.84,252.3,214.67,252.24Z" style="fill:#263238"></path><path d="M218.34,254.84a8.07,8.07,0,0,1,.49-2.38,25.13,25.13,0,0,1,5.9-10.06,8,8,0,0,1,1.84-1.59c.13.13-2.62,2.64-4.9,6.55S218.52,254.89,218.34,254.84Z" style="fill:#263238"></path><path d="M354.19,385c-.1,0,.36-1.43.58-3.77a21.43,21.43,0,0,0-5.71-16.77c-1.61-1.71-2.82-2.55-2.76-2.63a3.83,3.83,0,0,1,.89.53,17.46,17.46,0,0,1,2.15,1.83,20.13,20.13,0,0,1,5.82,17.08,16.68,16.68,0,0,1-.59,2.76A3.55,3.55,0,0,1,354.19,385Z" style="fill:#263238"></path><path d="M357.33,381.22a34.06,34.06,0,0,1,.57-4,38.08,38.08,0,0,1,.46-4,13.63,13.63,0,0,1-1,8Z" style="fill:#263238"></path><path d="M359.42,380.84c-.14-.1.86-1.47,1.39-3.43s.42-3.64.59-3.66a5.78,5.78,0,0,1,0,3.81A5.84,5.84,0,0,1,359.42,380.84Z" style="fill:#263238"></path><path d="M441.57,399.71c-.09,0-.29-.79-1-1.88a10,10,0,0,0-3.82-3.3,19.08,19.08,0,0,0-4.91-1.56,11,11,0,0,1-2.12-.48,7,7,0,0,1,2.19.08A15.82,15.82,0,0,1,437,394a9.27,9.27,0,0,1,3.91,3.59A3.94,3.94,0,0,1,441.57,399.71Z" style="fill:#263238"></path><path d="M455.6,400.2c-.09.06-.75-1.17-2.17-2.88a22.1,22.1,0,0,0-2.74-2.76,22.71,22.71,0,0,0-8.33-4.5,22.37,22.37,0,0,0-3.81-.79c-2.21-.25-3.6-.13-3.6-.24a3.17,3.17,0,0,1,1-.15,6.65,6.65,0,0,1,1.15-.05,11.65,11.65,0,0,1,1.52.05,19.46,19.46,0,0,1,3.92.68,23.49,23.49,0,0,1,4.52,1.82,23.9,23.9,0,0,1,4,2.79,20.73,20.73,0,0,1,2.71,2.9,14,14,0,0,1,.88,1.25,8.82,8.82,0,0,1,.58,1A3.22,3.22,0,0,1,455.6,400.2Z" style="fill:#263238"></path><path d="M390,332.84a20.37,20.37,0,0,1,.45,2.11c.27,1.36.69,3.32,1.29,5.73a135.77,135.77,0,0,0,6.05,18.38c1.44,3.51,2.59,6.94,3.8,10a49.93,49.93,0,0,0,3.74,7.82,21.69,21.69,0,0,0,3.61,4.57c1,.95,1.64,1.39,1.6,1.44a2.69,2.69,0,0,1-.47-.3,9.77,9.77,0,0,1-1.28-1,20.47,20.47,0,0,1-3.8-4.51,47.43,47.43,0,0,1-3.88-7.85c-1.24-3.05-2.4-6.47-3.84-10a121,121,0,0,1-5.92-18.5c-.55-2.42-.91-4.4-1.11-5.78-.12-.69-.17-1.23-.21-1.59A2,2,0,0,1,390,332.84Z" style="fill:#263238"></path><g style="opacity:0.4"><path d="M255.3,222.72c-.08-.34,1.84-1.21,5.19-1.73a31.56,31.56,0,0,1,5.92-.32,38.09,38.09,0,0,1,7.22,1,39,39,0,0,1,6.86,2.46,31.05,31.05,0,0,1,5.1,3c2.72,2,4,3.68,3.78,3.95s-2-.78-4.83-2.27a56,56,0,0,0-5.09-2.36,56.94,56.94,0,0,0-6.49-2.1,55.64,55.64,0,0,0-6.73-1.16c-2.09-.2-4-.29-5.6-.28C257.43,223,255.39,223.13,255.3,222.72Z" style="fill:#fff"></path></g><g style="opacity:0.4"><path d="M188.32,234.52c-.18,0-.46-.86-.64-2.49a25.52,25.52,0,0,1,.35-7,30.83,30.83,0,0,1,3.58-9.77,30.15,30.15,0,0,1,20.16-14.82,30.76,30.76,0,0,1,10.39-.49,24.82,24.82,0,0,1,6.74,1.74c1.51.66,2.26,1.19,2.19,1.35-.16.45-3.51-.9-9.09-1.12a33.53,33.53,0,0,0-9.63,1,30,30,0,0,0-18.54,13.62,33.11,33.11,0,0,0-3.86,8.89C188.51,230.9,188.79,234.5,188.32,234.52Z" style="fill:#fff"></path></g><path d="M447.89,326.92a1.46,1.46,0,0,1-.11.32c-.09.23-.21.53-.37.91l-1.48,3.47c-1.33,3-3.24,7.34-6.12,12.46A57.2,57.2,0,0,1,427,360.13a15.6,15.6,0,0,1-5.12,3.14,7.22,7.22,0,0,1-3.14.39,4.73,4.73,0,0,1-2.9-1.49,6.72,6.72,0,0,1-1.44-3A21,21,0,0,1,414,356q-.22-3.25-.47-6.6c-.63-8.92-1.23-17.41-1.77-25.14-.26-3.85-.25-7.68,1.09-11a17.59,17.59,0,0,1,6-7.46,26.94,26.94,0,0,1,7-3.64,49.56,49.56,0,0,1,5.76-1.62c1.6-.36,2.85-.6,3.7-.75l1-.17.33,0a1.93,1.93,0,0,1-.32.1l-1,.22-3.67.85a52.24,52.24,0,0,0-5.7,1.7,27.08,27.08,0,0,0-6.91,3.67,17.14,17.14,0,0,0-5.81,7.31c-1.29,3.17-1.29,6.91-1,10.75.56,7.73,1.17,16.22,1.82,25.13.16,2.23.31,4.43.47,6.6s.37,4.37,1.72,5.88a4.24,4.24,0,0,0,2.55,1.33,6.88,6.88,0,0,0,2.91-.37,15,15,0,0,0,5-3,57.55,57.55,0,0,0,12.8-15.85c2.92-5.07,4.88-9.39,6.27-12.35l1.58-3.43c.17-.36.31-.66.42-.88A2,2,0,0,1,447.89,326.92Z" style="fill:#263238"></path><path d="M476.82,338.81c-.76-.14-1.05-2-.64-4.17s1.34-3.8,2.1-3.66,1.06,2,.65,4.17S477.59,339,476.82,338.81Z" style="fill:#263238"></path><path d="M480.38,318.58c-.35.21-1-.23-1.92-.45a6.73,6.73,0,0,0-3.69.14,22.64,22.64,0,0,0-3.79,2c-1.05.59-1.83.89-2.1.6s0-1.05.78-2.09a9.05,9.05,0,0,1,4.21-3.11,6,6,0,0,1,5.55.77,3,3,0,0,1,1.05,1.42C480.6,318.22,480.53,318.48,480.38,318.58Z" style="fill:#263238"></path><path d="M479.92,307.49s.32,0,.48.47a1.21,1.21,0,0,1,0,.83,1.22,1.22,0,0,1-.87.74,4.52,4.52,0,0,1-2.93-.65,9.87,9.87,0,0,1-3.08-2.41l-1.4-1.64,1.71,1.32a3.8,3.8,0,0,1,1.84,2.37,1.74,1.74,0,0,1-.58,1.64,2.2,2.2,0,0,1-1.77.27,9.21,9.21,0,0,1-5.8-4,9,9,0,0,1-.67-1.2L466,303.5l1.29,1.43a10.93,10.93,0,0,1,2.21,3.76,3.17,3.17,0,0,1,.23,1.1,1.15,1.15,0,0,1-.68,1,2.42,2.42,0,0,1-2.08-.4,15.24,15.24,0,0,1-4.73-4.81,15,15,0,0,1-1.78-4.16,11.25,11.25,0,0,1-.23-1.2,1.18,1.18,0,0,1,0-.43,18.93,18.93,0,0,0,2.37,5.58,15.29,15.29,0,0,0,4.67,4.6,2,2,0,0,0,1.6.34c.47-.19.41-.84.15-1.47a10.47,10.47,0,0,0-2.12-3.57l.46-.3a9.13,9.13,0,0,0,.63,1.13,8.81,8.81,0,0,0,5.43,3.78,1.69,1.69,0,0,0,1.35-.17,1.24,1.24,0,0,0,.41-1.16,3.48,3.48,0,0,0-1.62-2.07l.31-.33a9.7,9.7,0,0,0,2.9,2.38,4.36,4.36,0,0,0,2.69.72,1.08,1.08,0,0,0,.85-1.29C480.18,307.59,479.89,307.52,479.92,307.49Z" style="fill:#263238"></path><g style="opacity:0.30000000000000004"><path d="M419.29,363.93c4.8.32,9.79.61,14.24-1.2,6-2.44,10-8.4,11.72-14.65s1.65-11.88,1.41-18.35c-6.12,15.38-12.73,27.37-27.37,34.2"></path></g><path d="M514,354.55a2.53,2.53,0,0,1-.18.49c-.14.31-.35.76-.63,1.34a18.11,18.11,0,0,1-3,4.58c-.81.84-1.79,1.64-2.79,2.53a10.6,10.6,0,0,1-3.63,2.45,3.25,3.25,0,0,1-2.46-.15,4.22,4.22,0,0,1-1.79-1.83,9.11,9.11,0,0,1-.47-5.17,49.44,49.44,0,0,1,2-9.69,27.7,27.7,0,0,1,3.37-7.36,11.37,11.37,0,0,1,4-3.73,6.38,6.38,0,0,1,1.38-.56,2.2,2.2,0,0,1,.5-.12c0,.06-.68.23-1.77.87a11.72,11.72,0,0,0-3.76,3.76,28.25,28.25,0,0,0-3.2,7.3,50.27,50.27,0,0,0-2,9.59,8.67,8.67,0,0,0,.4,4.86,3.67,3.67,0,0,0,1.54,1.6,2.71,2.71,0,0,0,2.07.14,10.54,10.54,0,0,0,3.48-2.31c1-.88,2-1.66,2.81-2.46a19.66,19.66,0,0,0,3.06-4.4A15,15,0,0,1,514,354.55Z" style="fill:#263238"></path><path d="M511.7,346c.76.1,1.35.44,1.31.77s-.7.49-1.47.39-1.35-.44-1.31-.77S510.93,345.93,511.7,346Z" style="fill:#263238"></path><path d="M507,348.5c.75-.19,1.42-.09,1.51.23s-.46.74-1.2.94-1.43.1-1.51-.23S506.24,348.7,507,348.5Z" style="fill:#263238"></path><path d="M511.46,349.68c.72-.29,1.38-.35,1.46-.14s-.43.63-1.15.91-1.37.35-1.45.14S510.75,350,511.46,349.68Z" style="fill:#263238"></path><path d="M507.42,355.34a1.06,1.06,0,1,1,.46-1.67A1.27,1.27,0,0,1,507.42,355.34Z" style="fill:#263238"></path><g style="opacity:0.30000000000000004"><path d="M517.65,338.57c-2.54-.73-5.94-1.42-7.08-1.65s-2,.82-2.84,1.33c-2.29,1.4-3.78,3.78-5,6.19-2.52,5.17-3.18,11-3.36,16.71-.06,1.78.69,3.68,2.42,4.13a3.21,3.21,0,0,0,2.64-.29,22.62,22.62,0,0,0,9.73-10.86,44.4,44.4,0,0,0,3.44-15.56"></path></g><path d="M515.1,338c-.19-.21-.54-.06-.76.12a8.06,8.06,0,0,0-2.11,3.51,4.11,4.11,0,0,0-.35,1.31,1.39,1.39,0,0,0,.53,1.19,1.55,1.55,0,0,0,1.53,0c.47-.24.88-.6,1.36-.83.17-.08.41-.13.52,0s0,.35-.09.5a4.93,4.93,0,0,0-.68,2.18,1.94,1.94,0,0,0,.16,1.07.93.93,0,0,0,.89.53s2.71-7.63.95-8.8S515.1,338,515.1,338Z" style="fill:#263238"></path><g style="opacity:0.30000000000000004"><path d="M459.15,298.57A45.07,45.07,0,0,0,468,312.12c1.28-2.75-.23-5.94-1.72-8.6a21.92,21.92,0,0,0,6.91,6.37,2.14,2.14,0,0,0,1.47.4,1.53,1.53,0,0,0,.85-2,4.8,4.8,0,0,0-1.55-1.87,3.73,3.73,0,0,1-1.38-2,19.78,19.78,0,0,0,5.18,3.95,3,3,0,0,0,2.24.45,2.18,2.18,0,0,0,1.08-2.8,5.53,5.53,0,0,0-2.21-2.44,32.54,32.54,0,0,0-18.6-6"></path></g><g style="opacity:0.4"><path d="M416.24,347.94c-.37,0-1-2.79-1.6-7.44a66,66,0,0,1,.11-18.43,42,42,0,0,1,1.2-5.2,29.72,29.72,0,0,1,1.77-4.69,15.68,15.68,0,0,1,5.59-6.64,9.85,9.85,0,0,1,5.63-1.61c1.4.08,2.09.49,2.05.65s-.77.19-2,.44a10.86,10.86,0,0,0-4.58,2.15,15,15,0,0,0-4.37,6.08,33,33,0,0,0-1.48,4.38,44.73,44.73,0,0,0-1.07,4.91c-1.13,6.81-.92,13.2-.9,17.83S416.64,347.9,416.24,347.94Z" style="fill:#fff"></path></g><path d="M144,250.14a6.21,6.21,0,0,1,.74-2.18,15.6,15.6,0,0,1,8-7.52,6.28,6.28,0,0,1,2.22-.61c.08.17-3.41,1.09-6.5,4S144.17,250.22,144,250.14Z" style="fill:#263238"></path><path d="M140,238.51c-.06,0,.11-.57.61-1.31a8,8,0,0,1,5.95-3.34A2.77,2.77,0,0,1,148,234a13.6,13.6,0,0,0-4.52,1.32C141.17,236.61,140.15,238.61,140,238.51Z" style="fill:#263238"></path></g><g id="freepik--Food--inject-2"><path d="M575.76,376.93a11.65,11.65,0,0,0,3.45,1,4,4,0,0,0,3.29-1.14c.47-.52.74-1.21,1.22-1.73a4.05,4.05,0,0,1,4.19-.71,6.63,6.63,0,0,1,4.25,4.37,6.08,6.08,0,0,1-1.52,5.86,5.6,5.6,0,0,1-5.88,1.19s7,2.54,5.08,7.69-8.5,5.8-10.83,1.39c0,0-1-3.23-2-3.61s-4.45-1.88-4.45-1.88l-5.94-2.41a12,12,0,0,0-3.45-1,4,4,0,0,0-3.29,1.14c-.47.53-.74,1.21-1.22,1.73a4,4,0,0,1-4.19.72,6.62,6.62,0,0,1-4.25-4.38,6.06,6.06,0,0,1,1.52-5.85,5.57,5.57,0,0,1,5.87-1.19s-7-2.55-5.08-7.7,8.51-5.79,10.84-1.39c0,0,1,3.24,2,3.62s4.44,1.88,4.44,1.88Z" style="fill:#263238"></path><path d="M574.31,375.49a11.8,11.8,0,0,0,3.46,1,4,4,0,0,0,3.29-1.14c.47-.53.74-1.21,1.22-1.73a4.05,4.05,0,0,1,4.19-.71,6.59,6.59,0,0,1,4.24,4.37,6,6,0,0,1-1.51,5.86,5.62,5.62,0,0,1-5.88,1.19s7,2.54,5.08,7.69-8.5,5.79-10.83,1.39c0,0-1-3.23-2-3.61s-4.45-1.89-4.45-1.89l-5.94-2.4a11.82,11.82,0,0,0-3.45-1,4,4,0,0,0-3.3,1.14c-.46.53-.73,1.21-1.21,1.73a4,4,0,0,1-4.2.71,6.59,6.59,0,0,1-4.24-4.37,6,6,0,0,1,1.52-5.85,5.59,5.59,0,0,1,5.87-1.2s-7-2.54-5.08-7.69,8.5-5.79,10.83-1.39c0,0,1,3.23,2,3.61s4.44,1.89,4.44,1.89Z" style="fill:#455a64"></path><path d="M579.65,344.07a8.35,8.35,0,0,0,2.48-.55,2.82,2.82,0,0,0,1.68-1.81c.11-.49.05-1,.18-1.49a2.85,2.85,0,0,1,2.37-1.85,4.68,4.68,0,0,1,4.12,1.31,4.28,4.28,0,0,1,1,4.16,3.93,3.93,0,0,1-3.26,2.71s5.23-.76,5.75,3.1-3.37,6.47-6.3,4.5c0,0-1.68-1.7-2.43-1.6s-3.4.32-3.4.32l-4.52.49a8.33,8.33,0,0,0-2.48.54,2.87,2.87,0,0,0-1.68,1.81c-.11.49,0,1-.18,1.49a2.87,2.87,0,0,1-2.37,1.86,4.71,4.71,0,0,1-4.12-1.31,4.31,4.31,0,0,1-1-4.16,4,4,0,0,1,3.27-2.72s-5.23.77-5.75-3.1,3.36-6.46,6.29-4.5c0,0,1.69,1.7,2.43,1.6s3.41-.31,3.41-.31Z" style="fill:#263238"></path><path d="M578.26,343.65a8.72,8.72,0,0,0,2.49-.54,2.82,2.82,0,0,0,1.67-1.82c.12-.48.06-1,.18-1.48A2.88,2.88,0,0,1,585,338a4.68,4.68,0,0,1,4.12,1.31,4.28,4.28,0,0,1,1,4.16,4,4,0,0,1-3.27,2.72s5.24-.77,5.76,3.1-3.37,6.46-6.3,4.5c0,0-1.68-1.7-2.43-1.6s-3.41.31-3.41.31l-4.51.49a8.72,8.72,0,0,0-2.49.54,2.85,2.85,0,0,0-1.67,1.82c-.11.49,0,1-.18,1.49a2.87,2.87,0,0,1-2.38,1.85,4.67,4.67,0,0,1-4.11-1.31,4.28,4.28,0,0,1-1-4.16,4,4,0,0,1,3.27-2.71s-5.23.76-5.75-3.1,3.36-6.47,6.29-4.5c0,0,1.68,1.69,2.43,1.6s3.41-.32,3.41-.32Z" style="fill:#455a64"></path></g></svg>